<?xml version="1.0" encoding="utf-8"?>
<!-- Generator: Adobe Illustrator 15.1.0, SVG Export Plug-In . SVG Version: 6.00 Build 0)  -->
<!DOCTYPE svg PUBLIC "-//W3C//DTD SVG 1.1//EN" "http://www.w3.org/Graphics/SVG/1.1/DTD/svg11.dtd">
<svg version="1.1" id="ae" xmlns="http://www.w3.org/2000/svg" xmlns:xlink="http://www.w3.org/1999/xlink" x="0px" y="0px"
	 width="318.5px" height="175px" viewBox="-75.5 -45 318.5 175" enable-background="new -75.5 -45 318.5 175" xml:space="preserve">
<polygon fill="#FFFFFF" points="25.788,82.002 49.248,82.002 49.248,77.729 25.788,77.729 25.788,61.356 52.551,61.356 
	52.551,57.084 21.519,57.084 21.519,103.614 53.1,103.614 53.1,99.351 25.788,99.351 "/>
<polygon fill="#FFFFFF" points="91.965,57.084 75.912,77.242 59.99,57.233 59.871,57.084 54.388,57.084 73.175,80.661 
	54.879,103.614 60.362,103.614 75.912,84.081 91.359,103.467 91.477,103.614 96.897,103.614 78.6,80.661 97.388,57.084 "/>
<path fill="#FFFFFF" d="M118.149,57.084H98.924v46.53h4.276V86.525h15.375c3.758,0,7.207-1.632,9.71-4.598
	c2.312-2.727,3.635-6.425,3.635-10.148c0-3.584-1.401-7.236-3.842-10.018C125.446,58.743,121.919,57.084,118.149,57.084z
	 M118.571,82.262h-15.373V61.356h14.951c5.058,0,9.492,4.871,9.492,10.423C127.642,76.934,124.25,82.262,118.571,82.262z"/>
<path fill="#FFFFFF" d="M193.577,54.952c-6.499-7.059-15.335-10.951-24.885-10.951c-9.08,0-17.682,3.618-24.213,10.181
	c-3.141,3.16-5.617,6.822-7.354,10.883c-1.794,4.199-2.706,8.616-2.706,13.123c0,8.471,3.477,16.971,9.546,23.324
	c6.432,6.738,15.206,10.553,24.728,10.736h0.011h0.004c18.886-0.378,34.246-15.658,34.246-34.061
	C202.957,69.895,199.538,61.424,193.577,54.952z M168.694,47.963c16.302,0,30.071,13.841,30.071,30.229
	c0,14.532-12.085,30.094-30.071,30.094c-18.043,0-29.458-15.313-30.076-30.094C138.618,63.594,150.702,47.963,168.694,47.963z"/>
<path fill="#129FDB" d="M5.432-27.274c-0.246-0.586-0.825-0.973-1.461-0.973H3.014c-0.235,0-0.487,0.052-0.701,0.165l-12.171,6.054
	c-0.355,0.171-0.625,0.474-0.771,0.841l-27.266,70.122c-0.19,0.488-0.122,1.037,0.173,1.468c0.292,0.433,0.783,0.688,1.308,0.688
	H-25.8c0.657,0,1.251-0.409,1.487-1.034l8.155-22.245h30.194l8.563,22.266c0.235,0.612,0.823,1.015,1.476,1.015h11.409
	c0.522,0,1.016-0.262,1.31-0.704c0.291-0.434,0.346-0.992,0.145-1.488L5.432-27.274z M9.81,16.73h-22.05l10.808-29.384L9.81,16.73z"
	/>
<path fill="#129FDB" d="M192.762-28.248h-0.08c-0.071,0-0.144,0.006-0.219,0.015l-9.89,1.369c-0.783,0.105-1.361,0.776-1.361,1.569
	v9.084c0,0.876,0.698,1.582,1.579,1.582h9.971c0.874,0,1.584-0.706,1.584-1.582v-10.455
	C194.346-27.541,193.636-28.248,192.762-28.248z"/>
<path fill="#129FDB" d="M192.762-8.771h-9.971c-0.879,0-1.579,0.714-1.579,1.587v47.167c0,0.646,0.393,1.234,1.003,1.472
	c3.421,1.343,6.65,3.169,9.58,5.45c0.283,0.22,0.63,0.332,0.972,0.332c0.24,0,0.481-0.058,0.694-0.169
	c0.547-0.264,0.887-0.813,0.887-1.417V-7.184C194.346-8.06,193.636-8.771,192.762-8.771z"/>
<path fill="#129FDB" d="M88.351,6.798c1.21-1.556,2.684-2.758,4.367-3.566c1.71-0.811,3.631-1.226,5.744-1.226
	c1.37,0,2.721,0.199,4.031,0.59c1.261,0.374,2.375,0.938,3.316,1.656c0.914,0.711,1.676,1.61,2.259,2.659
	c0.563,1.048,0.907,2.297,0.996,3.702c0.059,0.825,0.751,1.47,1.583,1.47h9.773l0,0c0.873,0,1.583-0.711,1.583-1.585
	c0-0.095-0.005-0.2-0.025-0.302c-0.359-2.83-1.174-5.43-2.415-7.723c-1.267-2.337-2.951-4.332-5.021-5.948
	c-2.039-1.588-4.456-2.83-7.184-3.692c-2.697-0.854-5.716-1.29-8.962-1.29c-3.922,0-7.591,0.648-10.879,1.93
	c-3.336,1.286-6.247,3.229-8.649,5.756c-2.403,2.529-4.28,5.691-5.567,9.407c-1.274,3.683-1.926,7.948-1.926,12.677
	c0,4.79,0.652,9.069,1.926,12.72c1.292,3.695,3.164,6.855,5.563,9.406c2.404,2.555,5.313,4.511,8.653,5.809
	c3.288,1.271,6.957,1.919,10.883,1.919c3.017,0,5.897-0.403,8.565-1.201c2.698-0.806,5.121-2.011,7.224-3.571
	c2.119-1.585,3.888-3.593,5.239-5.96c1.353-2.368,2.221-5.129,2.563-8.196c0.048-0.452-0.089-0.901-0.393-1.236
	c-0.305-0.334-0.729-0.53-1.178-0.53h-9.773c-0.832,0-1.524,0.655-1.583,1.487c-0.095,1.528-0.433,2.834-1.003,3.892
	c-0.58,1.061-1.33,1.944-2.235,2.628c-0.933,0.697-2.03,1.219-3.284,1.554c-1.315,0.344-2.689,0.521-4.08,0.521
	c-4.372,0-7.72-1.547-10.252-4.727c-2.584-3.249-3.895-8.128-3.895-14.508c0-3.201,0.369-6.048,1.083-8.501
	C86.113,10.425,87.104,8.402,88.351,6.798z"/>
<path fill="#129FDB" d="M155.177-8.455c-5.433,0-10.427,2.014-14.906,5.988v-24.199c0-0.877-0.705-1.582-1.585-1.582h-9.979
	c-0.869,0-1.583,0.705-1.583,1.582v76.18c0,0.869,0.714,1.576,1.583,1.576h9.979c0.88,0,1.585-0.704,1.585-1.576V10.483
	c4.509-5.211,9.018-7.85,13.408-7.85c3.175,0,5.425,0.804,6.71,2.389c1.365,1.679,2.05,4.638,2.05,8.76v24.31
	c0,0.47,0.209,0.91,0.569,1.211c0.353,0.303,0.828,0.431,1.286,0.356c2.167-0.376,4.382-0.562,6.588-0.562
	c0.991,0,2.005,0.038,2.997,0.116c0.439,0.035,0.874-0.126,1.205-0.419c0.314-0.301,0.5-0.72,0.5-1.161V13.36
	c0-7.13-1.718-12.591-5.129-16.25C167.019-6.582,161.881-8.455,155.177-8.455z"/>
<path fill="#129FDB" d="M72.563,3.45v-9.846c0-0.741-0.51-1.378-1.233-1.543c-0.901-0.204-1.749-0.344-2.542-0.406
	c-0.765-0.076-1.535-0.11-2.302-0.11c-4.87,0-9.188,2.02-12.893,6.023v-3.325c0-0.88-0.711-1.581-1.586-1.581h-9.978
	c-0.873,0-1.582,0.701-1.582,1.581v55.275c0,0.868,0.711,1.575,1.582,1.575h9.978c0.875,0,1.586-0.703,1.586-1.575v-38.41
	c3.249-4.526,6.955-6.731,11.313-6.731c2.285,0,4.191,0.204,5.655,0.604c0.479,0.13,0.99,0.023,1.38-0.274
	C72.33,4.41,72.563,3.945,72.563,3.45z"/>
</svg>
